<svg xmlns="http://www.w3.org/2000/svg" width="97.038" height="15.066" viewBox="0 0 97.038 15.066">
  <path id="Logo_Wordmark" data-name="Logo Wordmark" d="M5.076,14.1a2.44,2.44,0,0,0,1.278-.369,2.87,2.87,0,0,0,.99-1l.936.612a3.984,3.984,0,0,1-1.314,1.377,3.474,3.474,0,0,1-1.836.459,4.1,4.1,0,0,1-2.241-.621,4.267,4.267,0,0,1-1.566-1.9,7.7,7.7,0,0,1-.585-3.2A7.666,7.666,0,0,1,1.368,6.1a4.13,4.13,0,0,1,1.6-1.845A4.125,4.125,0,0,1,5.058,3.7a3.575,3.575,0,0,1,2.061.594A3.714,3.714,0,0,1,8.442,5.91l-1.08.5q-.018,0-.018-.009t0-.009A3.278,3.278,0,0,0,6.3,5.082,2.28,2.28,0,0,0,5.022,4.7,2.557,2.557,0,0,0,2.781,5.937a6.153,6.153,0,0,0-.819,3.429,6.855,6.855,0,0,0,.414,2.466A3.981,3.981,0,0,0,3.5,13.506,2.4,2.4,0,0,0,5.076,14.1Zm2.07-7.74.036-.036q.036,0,.144.108L7.2,6.486Zm.216.054q.072.162-.036.018Zm9.306,2.07V8.5a3.669,3.669,0,0,0-.873-.648,1.937,1.937,0,0,0-.819-.162,2.458,2.458,0,0,0-1.224.324A2.426,2.426,0,0,0,12.816,9a3.4,3.4,0,0,0-.36,1.647v4.374H11.142V6.774h1.35l-.036,1.512a2.687,2.687,0,0,1,1.053-1.26,2.854,2.854,0,0,1,1.557-.45,2.892,2.892,0,0,1,2.178.9Zm0,.018q.126.108.063.09a.594.594,0,0,1-.1-.036Zm-.2.054q0-.054.054-.045a.277.277,0,0,1,.108.045l-.036.09-.126-.072Zm5.922-1.962a3.666,3.666,0,0,1,2.691.918,4.283,4.283,0,0,1,.927,3.114V15h-1.4V13.74A2.87,2.87,0,0,1,21.8,15.2a3.335,3.335,0,0,1-2.142-.621,2.006,2.006,0,0,1-.774-1.647,2.246,2.246,0,0,1,.558-1.512,3.579,3.579,0,0,1,1.5-1,5.929,5.929,0,0,1,2.079-.351,14.428,14.428,0,0,1,1.854.108,2.876,2.876,0,0,0-.729-1.953A2.653,2.653,0,0,0,22.3,7.656a3.061,3.061,0,0,0-1.179.234,3.306,3.306,0,0,0-1.035.684l-.63-.828A3.974,3.974,0,0,1,22.392,6.594Zm-.468,7.614a2.827,2.827,0,0,0,2.106-.783,3.323,3.323,0,0,0,.846-2.259,11.376,11.376,0,0,0-1.746-.126,4.383,4.383,0,0,0-2.16.45,1.473,1.473,0,0,0-.792,1.368Q20.178,14.208,21.924,14.208ZM28.8,15V13.956h2.106V7.818h-2V6.774H32.2v7.182h1.926V15Zm2.682-9.954a.922.922,0,0,1-.918-.918.921.921,0,0,1,.261-.666.875.875,0,0,1,.657-.27.953.953,0,0,1,.936.936.87.87,0,0,1-.279.648A.914.914,0,0,1,31.482,5.046ZM44.55,7.62a4.557,4.557,0,0,0-.468-.018,2.572,2.572,0,0,0-1.44.378,2.976,2.976,0,0,1,.306,1.35A3.064,3.064,0,0,1,42.6,10.8a2.573,2.573,0,0,1-1.008,1.035,3,3,0,0,1-1.521.378,3.238,3.238,0,0,1-1.278-.252,1.217,1.217,0,0,0-.324.756q0,.432.549.621a6.925,6.925,0,0,0,1.971.189,3.882,3.882,0,0,1,2.385.531,1.909,1.909,0,0,1,.639,1.557,2.206,2.206,0,0,1-.864,1.773,4.213,4.213,0,0,1-2.7.711,5.866,5.866,0,0,1-2.763-.54,1.712,1.712,0,0,1-1-1.584,1.777,1.777,0,0,1,.36-1.116,2.526,2.526,0,0,1,.918-.738,1.25,1.25,0,0,1-.594-1.1,2.292,2.292,0,0,1,.738-1.512,2.586,2.586,0,0,1-.684-.954,3.134,3.134,0,0,1-.234-1.224,3.026,3.026,0,0,1,.351-1.449,2.573,2.573,0,0,1,1.008-1.035,3,3,0,0,1,1.521-.378,2.748,2.748,0,0,1,2.106.846,3.042,3.042,0,0,1,.891-.585,2.647,2.647,0,0,1,1.017-.189l.306.018Zm-4.482,3.51a1.73,1.73,0,0,0,1.287-.522,1.848,1.848,0,0,0,0-2.556,1.848,1.848,0,0,0-2.574,0,1.848,1.848,0,0,0,0,2.556A1.73,1.73,0,0,0,40.068,11.13Zm2.754,4.68a1.264,1.264,0,0,0-.153-.675.963.963,0,0,0-.6-.36,5.773,5.773,0,0,0-1.35-.117,7.386,7.386,0,0,1-2.07-.234,1.834,1.834,0,0,0-.6.594,1.657,1.657,0,0,0-.171.81,1.051,1.051,0,0,0,.684.954,4.341,4.341,0,0,0,1.908.342,3.526,3.526,0,0,0,1.773-.351A1.077,1.077,0,0,0,42.822,15.81ZM55.008,3.786H58.32a4.024,4.024,0,0,1,2.817.846,3.063,3.063,0,0,1,.909,2.358,3.137,3.137,0,0,1-.639,1.872A2.836,2.836,0,0,1,59.76,10l2.592,5h-1.4l-2.484-4.95H56.286V15H55.008Zm3.456,5.148a2.489,2.489,0,0,0,1.728-.513A1.847,1.847,0,0,0,60.75,6.99a1.955,1.955,0,0,0-.567-1.458,2.361,2.361,0,0,0-1.719-.558H56.286v3.96Zm9.036,6.21a3.625,3.625,0,0,1-1.962-.54,3.676,3.676,0,0,1-1.35-1.512,4.884,4.884,0,0,1-.486-2.214,4.884,4.884,0,0,1,.486-2.214,3.739,3.739,0,0,1,1.35-1.521,3.78,3.78,0,0,1,3.924,0,3.739,3.739,0,0,1,1.35,1.521,4.885,4.885,0,0,1,.486,2.214,4.885,4.885,0,0,1-.486,2.214,3.676,3.676,0,0,1-1.35,1.512A3.625,3.625,0,0,1,67.5,15.144Zm0-1.08a2.023,2.023,0,0,0,1.251-.414,2.769,2.769,0,0,0,.864-1.143,4.114,4.114,0,0,0,.315-1.647,3.663,3.663,0,0,0-.684-2.3,2.156,2.156,0,0,0-3.492,0,3.663,3.663,0,0,0-.684,2.3,4.114,4.114,0,0,0,.315,1.647,2.769,2.769,0,0,0,.864,1.143A2.023,2.023,0,0,0,67.5,14.064ZM75.978,15.2a2.52,2.52,0,0,1-2.07-.963,4.445,4.445,0,0,1-.756-2.871l.018-4.59h1.26v4.59a3.494,3.494,0,0,0,.513,2.133,1.639,1.639,0,0,0,1.359.657,2.013,2.013,0,0,0,1.575-.729,3.116,3.116,0,0,0,.639-2.115V6.774h1.26v6.948q0,.432.027.711a1.86,1.86,0,0,0,.153.567H78.714a1.682,1.682,0,0,1-.153-.558q-.027-.288-.027-.7a2.867,2.867,0,0,1-1.071,1.071A2.933,2.933,0,0,1,75.978,15.2Zm10.116-5.04a6.258,6.258,0,0,1,2.187,1.017,1.8,1.8,0,0,1,.639,1.431,2.3,2.3,0,0,1-.873,1.845,3.852,3.852,0,0,1-2.529.729,4.953,4.953,0,0,1-3.492-1.3l.72-1.224.018-.018.018.018a4.355,4.355,0,0,0,1.152,1.08,3.117,3.117,0,0,0,1.62.36,2.859,2.859,0,0,0,1.53-.351,1.085,1.085,0,0,0,.558-.963,1.044,1.044,0,0,0-.45-.864,5.872,5.872,0,0,0-1.62-.72q-3.1-.882-3.1-2.556a1.762,1.762,0,0,1,.783-1.512A3.827,3.827,0,0,1,85.5,6.576a4.951,4.951,0,0,1,1.881.315,4.029,4.029,0,0,1,1.4.981l-.738.9-.018.018a2.582,2.582,0,0,0-1.071-.909,3.23,3.23,0,0,0-1.413-.333,2.635,2.635,0,0,0-1.269.27.832.832,0,0,0-.495.756,1.053,1.053,0,0,0,.5.828A6.049,6.049,0,0,0,86.094,10.158Zm1.728-1.332q0-.09.144.018l-.054.072Zm.2-.036q.054.072.045.09t-.045,0a.209.209,0,0,1-.054-.036Zm-5.058,3.8q0,.072-.162,0l.054-.09.108.072Zm-.2.054q-.054-.09-.036-.09a.186.186,0,0,1,.072.036Zm8.55-9.612h1.422v.126a.47.47,0,0,0-.135.234,2.356,2.356,0,0,0-.027.432v4.41a3.821,3.821,0,0,1,1.215-1.206,2.8,2.8,0,0,1,1.485-.45A2.227,2.227,0,0,1,97.11,7.4a4.15,4.15,0,0,1,.666,2.61V15h-1.26V10.05A3.024,3.024,0,0,0,96.1,8.268,1.3,1.3,0,0,0,95,7.71a2.283,2.283,0,0,0-1.134.315,2.6,2.6,0,0,0-.927.9,2.46,2.46,0,0,0-.369,1.341V15h-1.26Z" transform="translate(-0.738 -3.03)" fill="#000026"/>
</svg>
